<svg width="301" height="301" viewBox="0 0 301 301" fill="none" xmlns="http://www.w3.org/2000/svg">
<g clip-path="url(#clip0_1_6)">
<rect x="0.5" y="0.5" width="300" height="300" fill="white"/>
<path d="M126.099 0.5V61.0037H230.817V105.994H126.099V217.305C126.099 230.233 128.684 240.188 133.855 247.169C139.027 253.892 146.654 257.253 156.738 257.253C167.081 257.253 175.225 253.504 181.172 246.006C187.378 238.507 191.903 226.743 194.747 210.712H238.186C236.893 240.446 229.007 263.2 214.527 278.972C200.306 294.486 180.526 302.243 155.187 302.243C130.106 302.243 110.843 295.003 97.3981 280.524C83.9528 265.786 77.2301 245.101 77.2301 218.469V105.994H35.943V61.0037H77.2301V0.5H126.099Z" fill="black"/>
<rect x="126" y="34" width="147" height="111" fill="white"/>
<rect x="193" y="61" width="45" height="45" fill="black"/>
</g>
<defs>
<clipPath id="clip0_1_6">
<rect x="0.5" y="0.5" width="300" height="300" rx="72.6644" fill="white"/>
</clipPath>
</defs>
</svg>
